<svg xmlns="http://www.w3.org/2000/svg" data-name="Layer 1" viewBox="0 0 884.76959 805.08188" xmlns:xlink="http://www.w3.org/1999/xlink"><path d="M1031.08805,686.91221c-12.30993,20.33-29.78,56.46-50.11993,86.15-17.11,24.97-36.25,45.39-56.08,48-86.95,11.46-212.05,14.54-299,26-103.66,13.66-206-1.23-310-12-26.22-2.72-29.95-45.37-50.46-62a30.03384,30.03384,0,0,0-5.35-3.5c-25.4-12.93-47.37-34.94-54.49-62.54-9.13-35.38,7.07-72.11,25.69-103.55,18.61-31.44,40.64-62.78,44.57995-99.1,4.85-44.65-18.68994-87.28-44.85-123.78-26.15-36.51-56.45-71.84-68.48-115.1-21-75.49,27.57995-163.3,102.69-185.61,0,0,331.46,2.1,504.66-25.23,41.65-6.57,86.31-13.91,124.41,4.19,43.47,20.65,66.79,70.29,70.98,118.24,4.19,47.95-7.18,95.68006-15.26,143.13-8.08,47.44-12.67,97.54,4.29,142.59,14.65,38.89,43.94,70.23,65.01,106.06C1040.37809,604.69224,1052.62809,651.36222,1031.08805,686.91221Z" transform="translate(-157.6152 -47.45906)" fill="#2f2e41"/><path d="M980.96812,773.06223c-17.11,24.97-36.25,45.39-56.08,48-86.95,11.46-212.05,14.54-299,26-103.66,13.66-206-1.23-310-12-26.22-2.72-29.95-45.37-50.46-62Z" transform="translate(-157.6152 -47.45906)" fill="#3f3d56"/><path d="M374.80169,132.38364,355.31487,659.89883v.00947q.98652,1.36165,1.99742,2.72332c.36534.50122.73885.993,1.1205,1.49419.56024.766,1.1367,1.52235,1.72133,2.2789.00808.00947.00808.01893.0162.0284l.02439.0284v.00946a348.41479,348.41479,0,0,0,58.89077,60.72889v.208l.22737-.0284c.26791.22694.53586.43519.80382.65267,1.94057,1.55074,3.89735,3.08256,5.87039,4.57674q1.44933,1.10645,2.9068,2.18448v.00947c.00812,0,.00812,0,.01625.00946h.01621l.01625.01893.04872.02817c.02433.01893.04059.02863.065.04756.747.55778,1.48583,1.10632,2.24094,1.65487.22737.17961.45474.3403.68206.501.39785.29321.80382.58641,1.2098.87961.39785.28351.80382.57671,1.2098.86045,1.61582,1.15365,3.2478,2.28837,4.87983,3.40416.406.28374.82008.558,1.23418.84175.406.27427.82008.54854,1.23418.82282v.02816l.04872.00947.0162.00946.01626.01893h.00813c1.1367.75656,2.26532,1.51312,3.4102,2.25074l.00808.00947c.91751.59564,1.835,1.18205,2.76065,1.76822,2.19228,1.39007,4.40076,2.76143,6.61742,4.09469,1.54268.93618,3.09353,1.84395,4.65246,2.74226.94184.54855,1.89186,1.08763,2.84183,1.62647.78757.44466,1.58332.88885,2.37088,1.324.21925.12282.43036.24587.64955.35923.35726.19878.72265.39732,1.07991.58641H741.47869c.38972-.208.77949-.41626,1.16921-.63374a.762.762,0,0,0,.21112-.11336c.00813,0,.00813-.00946.01625-.00946.56025-.30267,1.1205-.61457,1.68075-.92671l.0162-.00946q4.29931-2.39712,8.52549-4.94568,9.58507-5.759,18.82914-12.2649,4.957-3.48936,9.80838-7.187,1.51022-1.149,3.02043-2.32623c.90939-.70923,1.81069-1.41846,2.71194-2.13716q4.77426-3.80136,9.42674-7.80152,4.81083-4.12758,9.48358-8.46342,6.08962-5.64543,11.93569-11.61247,10.90046-11.09244,20.90773-23.30044c.21112-.25534.42223-.51068.63335-.77548q2.448-2.9931,4.83107-6.06146l-16.239-537.74707a26.11659,26.11659,0,0,0-1.76192-9.55105c-2.46831-6.24107-7.28318-10.487-12.81256-10.487h-424.496c-5.60248,0-10.46606,4.35-12.90191,10.72339-.08117.20825-.15427.41626-.22732.62427A26.23978,26.23978,0,0,0,374.80169,132.38364Z" transform="translate(-157.6152 -47.45906)" fill="#3f3d56"/><ellipse cx="617.0723" cy="100.31013" rx="21.92267" ry="25.53225" fill="#fff"/><path d="M542.47283,216.19777c36.95953,9.72183,77.911,15.63558,119.55053,17.25488a149.69261,149.69261,0,0,0,18.31665-.12454c13.39941-1.127,24.877-5.3384,37.65945-7.63985,6.14509-1.10326,12.99013-1.91,19.17674-3.10223q-2.14429-2.66029-4.36562-5.25535c-13.3401,1.127-26.88776,4.81642-40.388,6.53065-22.94919,2.91832-48.66248-.3381-66.05975-8.36942-8.44059-3.897-14.906-8.76092-23.317-12.67573a10.86668,10.86668,0,0,0-3.65976-1.12108,12.735,12.735,0,0,0-6.90434,1.79135c-14.11116,7.12377-34.59879,12.913-53.61536,9.72773C537.44878,214.32338,540.14173,215.5868,542.47283,216.19777Z" transform="translate(-157.6152 -47.45906)" fill="#fff"/><path d="M549.62767,305.18621c-.23773-.04341-.4761-.07731-.714-.11849a19.40735,19.40735,0,0,0,2.81319-2.11948Z" transform="translate(-157.6152 -47.45906)" fill="#fff"/><path d="M393.79817,324.4253q16.308,1.30318,32.78658,1.94057a206.54777,206.54777,0,0,0,25.073-.17048c18.342-1.55085,34.05323-7.30755,51.55076-10.45793,16.036-2.88246,35.52285-4.27087,45.70475-10.669-26.31536-4.555-53.58064,4.71743-80.71607,8.16822a192.73768,192.73768,0,0,1-65.7761-3.2478Q397.91479,317.07718,393.79817,324.4253Z" transform="translate(-157.6152 -47.45906)" fill="#fff"/><path d="M620.262,519.82808v-7.77785A11.6483,11.6483,0,0,1,631.23607,500.427V470.05236h2.58214V500.3925h11.61963v19.366H700.3083V742.468H578.94776V563.4897A43.73048,43.73048,0,0,1,620.262,519.82808Z" transform="translate(-157.6152 -47.45906)" fill="#2f2e41"/><rect x="664.15835" y="551.38975" width="16.13837" height="12.9107" transform="translate(1186.83986 1068.23113) rotate(-180)" fill="#fff"/><rect x="637.69142" y="551.38975" width="16.13837" height="12.9107" transform="translate(1133.90601 1068.23113) rotate(-180)" fill="#fff"/><rect x="611.2245" y="551.38975" width="16.13837" height="12.9107" transform="translate(1080.97216 1068.23113) rotate(-180)" fill="#fff"/><rect x="664.15835" y="584.31202" width="16.13837" height="12.9107" transform="translate(1186.83986 1134.07568) rotate(-180)" fill="#fff"/><rect x="637.69142" y="584.31202" width="16.13837" height="12.9107" transform="translate(1133.90601 1134.07568) rotate(-180)" fill="#fff"/><rect x="611.2245" y="584.31202" width="16.13837" height="12.9107" transform="translate(1080.97216 1134.07568) rotate(-180)" fill="#fff"/><rect x="664.15835" y="617.2343" width="16.13837" height="12.9107" transform="translate(1186.83986 1199.92022) rotate(-180)" fill="#fff"/><rect x="637.69142" y="617.2343" width="16.13837" height="12.9107" transform="translate(1133.90601 1199.92022) rotate(-180)" fill="#fff"/><rect x="611.2245" y="617.2343" width="16.13837" height="12.9107" transform="translate(1080.97216 1199.92022) rotate(-180)" fill="#fff"/><rect x="664.15835" y="650.15657" width="16.13837" height="12.9107" transform="translate(1186.83986 1265.76477) rotate(-180)" fill="#fff"/><rect x="637.69142" y="650.15657" width="16.13837" height="12.9107" transform="translate(1133.90601 1265.76477) rotate(-180)" fill="#fff"/><rect x="611.2245" y="650.15657" width="16.13837" height="12.9107" transform="translate(1080.97216 1265.76477) rotate(-180)" fill="#fff"/><rect x="664.15835" y="683.07884" width="16.13837" height="12.9107" transform="translate(1186.83986 1331.60932) rotate(-180)" fill="#fff"/><rect x="637.69142" y="683.07884" width="16.13837" height="12.9107" transform="translate(1133.90601 1331.60932) rotate(-180)" fill="#fff"/><rect x="611.2245" y="683.07884" width="16.13837" height="12.9107" transform="translate(1080.97216 1331.60932) rotate(-180)" fill="#fff"/><rect x="664.15835" y="716.00112" width="16.13837" height="12.9107" transform="translate(1186.83986 1397.45387) rotate(-180)" fill="#fff"/><rect x="637.69142" y="716.00112" width="16.13837" height="12.9107" transform="translate(1133.90601 1397.45387) rotate(-180)" fill="#fff"/><rect x="611.2245" y="716.00112" width="16.13837" height="12.9107" transform="translate(1080.97216 1397.45387) rotate(-180)" fill="#fff"/><path d="M696.95873,455.03455V742.46516h74.96749q4.95705-2.996,9.80843-6.1707,1.51021-.98659,3.02043-1.99737c.90929-.609,1.81064-1.21793,2.71189-1.83522q4.77434-3.264,9.42674-6.69859,4.81075-3.54406,9.48353-7.26692,6.08964-4.84732,11.93574-9.97078V411.303H796.69072v-34.5323H774.74367V343.84605h-2.582v32.92464h-16.101a11.66042,11.66042,0,0,0-11.6596,11.65951V411.303h-3.71058a43.75012,43.75012,0,0,0-41.93728,31.29242,45.1574,45.1574,0,0,0-1.13675,4.83939A44.23523,44.23523,0,0,0,696.95873,455.03455Z" transform="translate(-157.6152 -47.45906)" fill="#2f2e41"/><rect x="762.47787" y="383.87347" width="16.13837" height="12.9107" transform="translate(1383.47891 733.19857) rotate(-180)" fill="#fff"/><path d="M374.80106,132.3816,355.31424,659.89793v.00812q.98652,1.36422,1.99737,2.728c.1624.22757.33293.44661.50341.674.203.268.406.54394.61709.82008.56024.76338,1.13675,1.51844,1.72133,2.2735L379.64026,132.3816c0-.25175.00813-.49537.01625-.74712.22737-5.67534,3.02857-10.40094,6.82849-12.02485a7.21074,7.21074,0,0,1,2.89054-.609H813.87163c4.15719,0,7.71353,3.59689,9.11007,8.6472a.23747.23747,0,0,1,.01625.07314,17.56544,17.56544,0,0,1,.61709,4.66059l16.239,555.47174c.66576-.69817,1.32348-1.39653,1.98111-2.10283.95815-1.02306,1.90807-2.06238,2.85-3.1017l-16.239-550.26721a26.12234,26.12234,0,0,0-1.762-9.54855c-2.46826-6.24385-7.28317-10.49034-12.81251-10.49034H389.37554c-5.60243,0-10.466,4.352-12.90186,10.72584-.08122.21092-.15427.41391-.22737.62522A26.23787,26.23787,0,0,0,374.80106,132.3816Zm79.831,620.61454c1.54273.804,3.09358,1.58347,4.65246,2.35478.94189.4708,1.89191.93366,2.84183,1.39653.78757.38159,1.58337.76319,2.37093,1.13665.21925.10566.43036.21112.64951.30865.35731.17048.72274.34095,1.08.5033H741.47806c.38972-.1786.77944-.35721,1.16916-.54394a.816.816,0,0,0,.21112-.09753c.00813,0,.00813-.00793.01625-.00793.5603-.25988,1.1205-.52789,1.6808-.79569l.01625-.00833q4.29932-2.05822,8.52549-4.24649Z" transform="translate(-157.6152 -47.45906)" fill="#2f2e41"/><rect x="219.6081" y="132.8498" width="448.80766" height="5.63507" fill="#2f2e41"/><rect x="213.42652" y="202.67757" width="459.5642" height="5.63507" fill="#2f2e41"/><polygon points="598.56 312.025 603.399 312.025 587.16 67.414 582.321 67.414 598.56 312.025" fill="#2f2e41"/><polygon points="281.377 313.649 286.216 313.649 305.703 67.414 300.864 67.414 281.377 313.649" fill="#2f2e41"/><rect x="368.60587" y="352.88818" width="461.1881" height="16.12807" transform="translate(1040.78465 674.44536) rotate(-180)" fill="#2f2e41"/><path d="M584.65937,343.99h22.5793a0,0,0,0,1,0,0v0a8.87043,8.87043,0,0,1-8.87043,8.87043H593.5298a8.87043,8.87043,0,0,1-8.87043-8.87043v0A0,0,0,0,1,584.65937,343.99Z" transform="translate(1034.28284 649.39138) rotate(-180)" fill="#2f2e41"/><path d="M357.75822,676.72152c.2192.25988.44657.51144.67389.77132.56024.65773,1.13675,1.30733,1.72133,1.95693.00813.00812.00813.01605.01625.02438l.02439.02418v.00833a326.22263,326.22263,0,0,0,58.89077,52.14326,2.23066,2.23066,0,0,0,.22737.15442c.26791.19486.53586.37347.80382.5602,1.94053,1.33151,3.89736,2.647,5.87039,3.92992.96622.63314,1.93245,1.25836,2.9068,1.87565v.00793c.00813,0,.00813,0,.0162.00813h.01626l.01625.01625.04872.02438c.02433.01626.04059.02439.065.04064.747.47912,1.48583.94992,2.24094,1.42092.22737.15422.45469.29238.68206.43035.39785.25176.80382.50331,1.2098.75506.39785.24363.80382.49538,1.2098.73881.51153.30864,1.02307.62521,1.5346.92573l-.03246-2.67948-.04872-3.56437-.23549-16.38532-.812-13.08854-4.81486-77.46816-.76323-12.26054-.17048-2.76055-2.168-34.8572-.73885-11.96815-1.68074-26.95673-.75511-12.26053,10.26109-12.84624-.03246-.46287-.065-1.10434-.04058-.67378v-.00813l-.86067-13.7544-.03246-.58478-.609-9.72716v-.01625l-.8688-14.09536-.55212-8.85018-.61709-9.93847-.49528-7.96509-.11368-1.82689-.30042-4.83939-.01625-.19466-12.86748-29.12346-.48715-7.8515v-.00833l-.51153-8.23309-.34919-5.63489-.7226-11.51341-.76323-12.24429-.30042-4.83919-1.06365-17.181v-.00793l-.59276-9.565-.59271-9.58086-.87692-14.01428-.57645-9.33744-.34914-5.63509-2.53333-40.85722-.11363-1.7702-.24363-3.86469-.82-13.21859,17.61122-30.22079-1.291-20.75351-.34914-5.63489-3.70249-59.53229-.11369-1.77813-.203-3.32908c-15.898-1.74561-28.86485-.46287-37.90187,7.75417l-.2517,56.88533-.02438,5.63489-5.13961,62.28472-.00813,1.90817-.02438,5.63489-2.08672,106.17883-.02434,4.83919-3.5726,75.80363-.02433,4.83939-1.85127,52.4194-.073,16.12543-8.761,147.32845Z" transform="translate(-157.6152 -47.45906)" fill="#ccc"/><path d="M425.98643,736.29446c.96622.63314,1.93245,1.25836,2.9068,1.87565v.00793c.00813,0,.00813,0,.0162.00813h.01626l.01625.01625.04872.02438c.02433.01626.04059.02439.065.04064.747.47912,1.48583.94992,2.24094,1.42092.22737.15422.45469.29238.68206.43035.39785.25176.80382.50331,1.2098.75506.39785.24363.80382.49538,1.2098.73881.51153.30864,1.02307.62521,1.5346.92573q1.66856,1.011,3.34523,1.99737c.406.24362.82008.47912,1.23418.72275.406.23529.82008.47079,1.23413.70629v.02438l.04877.00813.0162.00813.01626.01625h.00813c1.1367.6494,2.26532,1.299,3.4102,1.93235l.00808.00813c.91751.51163,1.835,1.01494,2.76065,1.51844q3.28842,1.79031,6.61737,3.51561c1.54273.804,3.09358,1.58347,4.65246,2.35478.94189.4708,1.89191.93366,2.84183,1.39653.78757.38159,1.58337.76319,2.37093,1.13665.21925.10566.43036.21112.64951.30865.35731.17048.72274.34095,1.08.5033.30042.138.59271.27614.89313.41411.71452.34115,1.43717.66585,2.15169.99055.80382.36554,1.59952.72275,2.40334,1.08,3.02044,1.348,6.07338,2.647,9.13445,3.89741A318.3702,318.3702,0,0,0,514.286,776.6565c.52789.15423,1.0637.30845,1.59962.45474q7.29537,2.046,14.69629,3.743,12.92218,2.97166,26.07986,4.87983c.01625,0,.04053.00813.05679.00813,1.04745.15422,2.103.30051,3.15047.44661.08921.01625.18674.03251.28407.04064.00812.00792.01625.00792.03251,0h.00812c1.16114.15422,2.32227.30844,3.49143.45474.08118.01605.16235.02418.24363.03231,1.08788.12984,2.1841.25988,3.28021.38159,1.17739.13,2.35468.25175,3.54009.37347h.00813c1.80251.1788,3.605.34928,5.40762.49537.03241,0,.06492.00813.09743.00813.71452.065,1.429.11378,2.14357.17048h.008q12.60566.99878,25.44662.99055,13.94519,0,27.60633-1.161c.03251,0,.065-.00813.09743-.00813q2.91085-.24352,5.81359-.53581c.51144-.04877,1.01494-.10566,1.52637-.15423.09753-.00832.195-.01625.29239-.03251.15423-.01625.30855-.03251.4709-.04876.08118-.00813.17058-.01626.25165-.03251.674-.07295,1.348-.1461,2.02988-.22737.75516-.0894,1.51844-.17861,2.2735-.27614.75516-.0892,1.51845-.18673,2.2735-.29219.16235-.01625.33283-.03251.49528-.065.55217-.065,1.10424-.138,1.64829-.21924.2679-.03251.52778-.07295.78757-.11358.52778-.07315,1.04734-.1461,1.57523-.22737.01626,0,.04054-.00813.05679-.00813a320.84231,320.84231,0,0,0,48.95246-11.03449h.00812c.86885-.2678,1.73769-.54394,2.60643-.81988q.38967-.10971.77944-.24362,3.38588-1.08413,6.73111-2.241,4.61583-1.58337,9.16686-3.31283c.8282-.31677,1.64828-.63334,2.47649-.94992,1.64828-.6496,3.28844-1.2992,4.92047-1.96485q4.1774-1.70527,8.29811-3.51581h.00813v-.00813c2.16784-.95805,4.32766-1.93255,6.47122-2.94749.38972-.1786.77944-.35721,1.16916-.54394a.816.816,0,0,0,.21112-.09753c.00813,0,.00813-.00793.01625-.00793.5603-.25988,1.1205-.52789,1.6808-.79569l.01625-.00833q4.29932-2.05822,8.52549-4.24649,5.237-2.70375,10.38478-5.60238,4.26275-2.39928,8.44431-4.9286,4.95705-2.996,9.80843-6.1707Z" transform="translate(-157.6152 -47.45906)" fill="#2f2e41"/><ellipse cx="562.67159" cy="106.92961" rx="1.6239" ry="1.89128" fill="#fff"/><ellipse cx="464.00509" cy="109.27509" rx="1.6239" ry="1.89128" fill="#fff"/><ellipse cx="403.10878" cy="111.16636" rx="1.6239" ry="1.89128" fill="#fff"/><circle cx="317.46242" cy="350.69325" r="1.6239" fill="#fff"/><circle cx="416.09999" cy="259.3328" r="1.6239" fill="#fff"/><circle cx="497.71552" cy="342.57375" r="1.6239" fill="#fff"/><circle cx="511.51868" cy="257.3189" r="1.6239" fill="#fff"/><circle cx="620.3201" cy="240.26793" r="1.6239" fill="#fff"/><rect x="361.719" y="664.74653" width="89.28519" height="1.62372" transform="translate(-427.65051 1006.15209) rotate(-88.43668)" fill="#b3b3b3"/><rect x="299.20635" y="352.14526" width="163.96953" height="1.62408" transform="translate(-135.00523 681.40392) rotate(-89.14881)" fill="#b3b3b3"/><path d="M445.24656,747.95705l3.82426-6.9666-1.88373-.8851-1.50209-.71442-6.55245-3.09358-3.938-1.8594-1.6239-.77131-1.291-.609-2.14356,3.23968-1.07986,1.632-.1624.24362v.00813a.55765.55765,0,0,1,.09743.04857c.02433.01625.04059.02458.065.04083.747.47893,1.48583.94992,2.24094,1.42092.22737.15422.45474.29219.68206.43016.39785.25175.80382.5035,1.2098.75525.39785.24343.80382.49518,1.2098.73881,1.61582.99055,3.2478,1.96486,4.87983,2.9229.406.24363.82008.47912,1.23418.72275.406.2355.82008.471,1.23418.70649v.02419l.04872.00812.0162.00813.01626.01626h.00813C442.97306,746.67411,444.10168,747.32371,445.24656,747.95705Z" transform="translate(-157.6152 -47.45906)" fill="#2f2e41"/><path d="M374.69551,183.69686a5.6903,5.6903,0,0,1,5.68365-5.68366h51.15291a5.68366,5.68366,0,0,1,0,11.36732H380.37916A5.6903,5.6903,0,0,1,374.69551,183.69686Z" transform="translate(-157.6152 -47.45906)" fill="#2f2e41"/><path d="M354.39673,238.09757a5.6903,5.6903,0,0,1,5.68366-5.68366H411.2333a5.68366,5.68366,0,0,1,0,11.36732H360.08039A5.6903,5.6903,0,0,1,354.39673,238.09757Z" transform="translate(-157.6152 -47.45906)" fill="#2f2e41"/><path d="M496.61982,648.01328v-3.0989a4.641,4.641,0,0,1,4.37237-4.631V628.1813h1.0288v12.08832h4.62957v7.716h21.86186V736.719h-48.3533V665.40925A17.42341,17.42341,0,0,1,496.61982,648.01328Z" transform="translate(-157.6152 -47.45906)" fill="#2f2e41"/><rect x="514.10931" y="660.5883" width="6.42996" height="5.14397" transform="translate(877.03338 1278.8615) rotate(-180)" fill="#fff"/><rect x="503.56418" y="660.5883" width="6.42996" height="5.14397" transform="translate(855.94311 1278.8615) rotate(-180)" fill="#fff"/><rect x="493.01904" y="660.5883" width="6.42996" height="5.14397" transform="translate(834.85284 1278.8615) rotate(-180)" fill="#fff"/><rect x="514.10931" y="673.70542" width="6.42996" height="5.14397" transform="translate(877.03338 1305.09574) rotate(-180)" fill="#fff"/><rect x="503.56418" y="673.70542" width="6.42996" height="5.14397" transform="translate(855.94311 1305.09574) rotate(-180)" fill="#fff"/><rect x="493.01904" y="673.70542" width="6.42996" height="5.14397" transform="translate(834.85284 1305.09574) rotate(-180)" fill="#fff"/><rect x="514.10931" y="686.82253" width="6.42996" height="5.14397" transform="translate(877.03338 1331.32997) rotate(-180)" fill="#fff"/><rect x="503.56418" y="686.82253" width="6.42996" height="5.14397" transform="translate(855.94311 1331.32997) rotate(-180)" fill="#fff"/><rect x="493.01904" y="686.82253" width="6.42996" height="5.14397" transform="translate(834.85284 1331.32997) rotate(-180)" fill="#fff"/><rect x="514.10931" y="699.93965" width="6.42996" height="5.14397" transform="translate(877.03338 1357.56421) rotate(-180)" fill="#fff"/><rect x="503.56418" y="699.93965" width="6.42996" height="5.14397" transform="translate(855.94311 1357.56421) rotate(-180)" fill="#fff"/><rect x="493.01904" y="699.93965" width="6.42996" height="5.14397" transform="translate(834.85284 1357.56421) rotate(-180)" fill="#fff"/><rect x="514.10931" y="713.05677" width="6.42996" height="5.14397" transform="translate(877.03338 1383.79845) rotate(-180)" fill="#fff"/><rect x="503.56418" y="713.05677" width="6.42996" height="5.14397" transform="translate(855.94311 1383.79845) rotate(-180)" fill="#fff"/><rect x="493.01904" y="713.05677" width="6.42996" height="5.14397" transform="translate(834.85284 1383.79845) rotate(-180)" fill="#fff"/><rect x="514.10931" y="726.17389" width="6.42996" height="5.14397" transform="translate(877.03338 1410.03268) rotate(-180)" fill="#fff"/><rect x="503.56418" y="726.17389" width="6.42996" height="5.14397" transform="translate(855.94311 1410.03268) rotate(-180)" fill="#fff"/><rect x="493.01904" y="726.17389" width="6.42996" height="5.14397" transform="translate(834.85284 1410.03268) rotate(-180)" fill="#fff"/><path d="M544.60048,604.77625h1.48041v-9.11537a4.64477,4.64477,0,0,1,4.64477-4.64475h6.41477V577.899h1.02879v13.11712H566.914v13.76012h8.61615V736.719h-48.3533V622.19991A17.42367,17.42367,0,0,1,544.60048,604.77625Z" transform="translate(-157.6152 -47.45906)" fill="#2f2e41"/><rect x="540.93693" y="615.19278" width="20.83307" height="1.54319" transform="translate(945.09172 1184.46969) rotate(-180)" fill="#fff"/><rect x="540.93693" y="624.70912" width="20.83307" height="1.54319" transform="translate(945.09172 1203.50237) rotate(-180)" fill="#fff"/><rect x="540.93693" y="634.22546" width="20.83307" height="1.54319" transform="translate(945.09172 1222.53505) rotate(-180)" fill="#fff"/><rect x="540.93693" y="643.7418" width="20.83307" height="1.54319" transform="translate(945.09172 1241.56773) rotate(-180)" fill="#fff"/><rect x="540.93693" y="653.25814" width="20.83307" height="1.54319" transform="translate(945.09172 1260.60042) rotate(-180)" fill="#fff"/><rect x="540.93693" y="662.77448" width="20.83307" height="1.54319" transform="translate(945.09172 1279.6331) rotate(-180)" fill="#fff"/><rect x="540.93693" y="672.29082" width="20.83307" height="1.54319" transform="translate(945.09172 1298.66578) rotate(-180)" fill="#fff"/><rect x="540.93693" y="681.80717" width="20.83307" height="1.54319" transform="translate(945.09172 1317.69846) rotate(-180)" fill="#fff"/><rect x="540.93693" y="691.32351" width="20.83307" height="1.54319" transform="translate(945.09172 1336.73114) rotate(-180)" fill="#fff"/><rect x="540.93693" y="700.83985" width="20.83307" height="1.54319" transform="translate(945.09172 1355.76382) rotate(-180)" fill="#fff"/><rect x="540.93693" y="710.35619" width="20.83307" height="1.54319" transform="translate(945.09172 1374.7965) rotate(-180)" fill="#fff"/><rect x="540.93693" y="719.87253" width="20.83307" height="1.54319" transform="translate(945.09172 1393.82918) rotate(-180)" fill="#fff"/><rect x="553.28245" y="593.84531" width="6.42996" height="5.14397" transform="translate(955.37965 1145.37554) rotate(-180)" fill="#fff"/><polygon points="374.181 452.355 374.917 491.052 328.139 491.052 328.136 454.737 374.181 452.355" fill="#ffb6b6"/><circle cx="346.03847" cy="345.85154" r="25.51019" fill="#ffb6b6"/><path d="M592.62,359.82914a9.54686,9.54686,0,0,0-9.28738,11.31563l-36.90057,59.67385,13.879,6.73678,34.86444-58.83493a9.59859,9.59859,0,0,0-2.5555-18.89133Z" transform="translate(-157.6152 -47.45906)" fill="#ffb6b6"/><path d="M530.45074,432.95081l-6.17746,11.76982-3.29977,6.29278-2.15639,4.10195a13.724,13.724,0,0,0-2.30664,5.03249A13.85488,13.85488,0,0,0,541.14541,471.521l17.63681-17.90254a4.9985,4.9985,0,0,0-.6272-7.528l15.38347-28.7109L556.43793,406.619l-18.62748,24.60542a5.00783,5.00783,0,0,0-7.35971,1.72642Z" transform="translate(-157.6152 -47.45906)" fill="#6c63ff"/><path d="M474.64566,574.53713a9.54684,9.54684,0,0,1-1.75756-14.53306l.91914-70.15537,15.32566,1.77065-2.18621,68.35421a9.59859,9.59859,0,0,1-12.301,14.56357Z" transform="translate(-157.6152 -47.45906)" fill="#ffb6b6"/><polygon points="302.488 753.347 312.933 753.347 317.904 713.058 302.488 713.058 302.488 753.347" fill="#ffb6b6"/><path d="M456.69457,793.652l16.68743-.996v7.14962l15.86521,10.95709a4.46592,4.46592,0,0,1-2.53768,8.141h-19.867l-3.42438-7.07207-1.33705,7.07207h-7.49066Z" transform="translate(-157.6152 -47.45906)" fill="#2f2e41"/><polygon points="401.696 748.258 411.445 744.507 394.995 680.394 378.253 687.323 401.696 748.258" fill="#ffb6b6"/><path d="M553.56133,790.26363l15.21695-6.92148,2.56718,6.67283L590.087,794.5447a4.46592,4.46592,0,0,1,.55469,8.50926l-18.54212,7.13357-5.73536-5.37087,1.29146,7.08054-6.99113,2.68964Z" transform="translate(-157.6152 -47.45906)" fill="#2f2e41"/><path d="M455.59674,766.06312h.11355l2.00881-65.50769a17.12949,17.12949,0,0,1,.22476-16.18706l.2876-.52061-.7457-3.45666A22.0176,22.0176,0,0,1,458.744,667.14l1.874-61.10652c-6.69513-43.39006,25.21187-71.68742,25.21187-71.68742H533.627l10.26149,35.25606c6.78374,66.09175,21.55284,94.49612,10.788,156.89314l.29347.14841c1.05672.36476,1.50993,1.82862,1.01257,3.26973s-1.75726,2.31367-2.814,1.94891L538.8881,749.06223c-1.05672-.36468-9.472-6.90652-8.97449-8.34762.49736-1.44111,1.75727-2.3136,2.814-1.94892l1.71632.8681L507.48376,615.85766,492.83831,688.311,477.8787,766.79223a2.75187,2.75187,0,0,1-1.85566,4.79171h-20.4263a2.76041,2.76041,0,0,1,0-5.52082Z" transform="translate(-157.6152 -47.45906)" fill="#6c63ff"/><path d="M468.79856,375.527a11.32729,11.32729,0,0,0,.7234.95361,14.14136,14.14136,0,0,0,4.70224,3.54193l.50734-.13622a6.59374,6.59374,0,0,0,2.81852,4.80087,4.66149,4.66149,0,0,0,1.5361.59189c-2.01056,8.09854-2.11389,14.91466-.31006,20.37788a19.63668,19.63668,0,0,0,1.09924,2.70579,19.31864,19.31864,0,0,0,2.37224,3.71106c.15973.19728.32414.38987.49324.58249a19.40215,19.40215,0,0,0,2.18906,2.12326,23.13865,23.13865,0,0,0,5.54308,3.401,35.16675,35.16675,0,0,0,11.06738,2.68228h.0047a43.69774,43.69774,0,0,0,8.64344-.06578l.49794-.06574.0047-.11274.01881-.3852c.00467-.094.00938-.19261.01878-.28657.03289-.62945.094-1.25893.17851-1.879.07515-.61067.1738-1.21664.29124-1.81324.3805.91132.89252,2.04812,1.49381,3.33056.653,1.39045,1.414,2.95474,2.22193,4.57539.42749.855.86906,1.72869,1.31533,2.60712,1.10391,2.17026,2.23132,4.34522,3.26006,6.29471.73751,1.39045,1.41866,2.66349,2.00585,3.72983.88784,1.63474,1.55018,2.79034,1.81324,3.16614l.7704,1.1039.52142-2.283.56371-2.4615.81269-3.57481.34291-1.49852c.04226-.19731.08455-.3899.12684-.58719a24.41665,24.41665,0,0,0,.48383-4.39691c.01878-.57308.00941-1.1462-.02348-1.71928a25.17209,25.17209,0,0,0-1.1462-6.36045,24.40566,24.40566,0,0,0-1.35289-3.401c-.18321-.39458-.3805-.78918-.59189-1.17438-.28184-.51672-.58249-1.02876-.89722-1.53137-.02818-.04229-.05169-.08458-.07987-.12685a17.65529,17.65529,0,0,1-1.74277-3.58421,17.00515,17.00515,0,0,1-.714-2.70579,17.59665,17.59665,0,0,1,1.9166-11.6076,15.72886,15.72886,0,0,1,2.87488-3.78151,13.51254,13.51254,0,0,1,1.58307-1.3153,12.95861,12.95861,0,0,1,2.76685-1.5267,12.62255,12.62255,0,0,1,4.768-.9301h.59659v-.59659a15.36489,15.36489,0,0,0-3.15673-9.41855c-.249-.32883-.51674-.64826-.79388-.95361a13.37309,13.37309,0,0,0-8.92531-4.58009c-.2255-1.78035-1.48913-3.3822-3.68757-4.65054a17.16686,17.16686,0,0,0-4.12442-1.63476,28.345,28.345,0,0,0-13.68391,0,23.75408,23.75408,0,0,0-5.27534,1.98708,7.29138,7.29138,0,0,0-.51672-1.98708,7.50211,7.50211,0,0,0-2.32058-3.05339,6.06456,6.06456,0,0,0-1.65354-.91132,7.17716,7.17716,0,0,0-3.92242-.22547c-6.76913-5.24243-13.36448-3.293-16.991,1.13679a12.49953,12.49953,0,0,0-1.86493,3.05339A11.18093,11.18093,0,0,0,468.79856,375.527Z" transform="translate(-157.6152 -47.45906)" fill="#2f2e41"/><path d="M498.52723,481.47134l-.72119-13.27289-.38819-7.09485-.24837-4.62755a13.724,13.724,0,0,0-.59585-5.50378,13.85488,13.85488,0,0,0-26.98379,2.84657l-5.9811,24.40869a4.99851,4.99851,0,0,0,4.39375,6.14488l1.48922,32.53843,20.19857.48554,3.39954-30.67332a5.00783,5.00783,0,0,0,5.43741-5.25172Z" transform="translate(-157.6152 -47.45906)" fill="#6c63ff"/><path d="M539.21378,462.52683c-.0346-.364-.0866-.74511-.15588-1.10888a32.94182,32.94182,0,0,0-12.5954-21.48316,33.6781,33.6781,0,0,0-7.5744-4.41138v-7.46118h-25v7.16309a34.43279,34.43279,0,0,0-13.68371,9.83765v.01733c-.27717.32922-.53711.67566-.79694,1.02222-.46777.58911-.90094,1.21264-1.31671,1.83642a33.422,33.422,0,0,0-5.54407,19.16162v.01734a33.01565,33.01565,0,0,0,1.09149,7.76172,124.336,124.336,0,0,1,2.72009,13.46154c.45044,2.8761.79694,5.70008,1.05677,8.45472.156,1.386.27728,2.75463.38122,4.08862v.01733c.51972,6.60083.69294,12.52613.84894,17.11731.06922,2.49475.13861,4.57385.25977,6.16773a1.90962,1.90962,0,0,0,.03473.31189,5.25461,5.25461,0,0,0,1.31671,2.876,2.49807,2.49807,0,0,0,.29449.31177,6.20379,6.20379,0,0,0,2.7027,1.42066,5.33107,5.33107,0,0,0,1.05682.104h.10407l0,0a60.21231,60.21231,0,0,1,37.5945-4.39283l8.364,1.72515a2.42563,2.42563,0,0,0,2.92084-2.37587c-.01582-5.43531-1.095-16.67641-.38635-17.2538a5.59954,5.59954,0,0,0,1.64581-2.37354v-.01733c.03467-.13868.08667-.27735.12128-.43311,1.45532-5.73462,4.0368-11.885,4.95508-21.77783.12115-1.42066.22522-2.89331.27716-4.46985v-.01746A102.15423,102.15423,0,0,0,539.21378,462.52683Z" transform="translate(-157.6152 -47.45906)" fill="#6c63ff"/><path d="M762.40205,733.79358c7.30756,7.30756,6.73923,10.35238,9.52417,8.67158q4.95705-2.996,9.80843-6.1707,1.51021-.98659,3.02043-1.99737c.90929-.609,1.81064-1.21793,2.71189-1.83522q4.77434-3.264,9.42674-6.69859,4.81075-3.54406,9.48353-7.26692,6.08964-4.84732,11.93574-9.97078,10.90053-9.524,20.90773-20.00639c.21112-.21924.42223-.43848.63335-.66585.66576-.69817,1.32348-1.39653,1.98111-2.10283l-3.30459-11.93583L834.47082,499.8542l-.24362-52.4194-.01626-4.83939-3.605-75.80362-.02439-4.8392-2.09479-102.20035-.01626-3.97848-.03251-5.63489,11.31865-11.002L823.274,185.946l-.02439-5.63489-.25165-52.59008-.01625-4.29525c-8.59854-7.82731-20.76967-9.36181-35.65279-7.98154-.73881.07315-1.494.1463-2.24912.22737l-.203,3.32908-.37347,5.93521v.00833l-2.923,47.06064v.01625l-.51966,8.29-.34909,5.63489-.9176,14.745,13.16992,49.44793-.34919,5.63489L790.0733,296.631l-.34918,5.63509-.72255,11.62719-2.988,48.05933-.30042,4.8392-.61709,9.9789-.77131,12.34162-.08931,1.43717-.34918,5.63489-9.00681,16.19045-.276,4.51429-1.27471,20.56678-.17058,2.7443-.073,1.12873-.08127,1.26649-.12984,2.11115-.17048,2.72824-.609,9.792-.25175,4.10852-.24362,3.873-.17048,2.80119-.28416,4.5145-.21925,3.49142,7.43158,9.2074-.24353,3.873-.4141,6.73111-.25165,4.02724-.03251.48725-.54395,8.76911-.24362,3.873-.17861,2.99605-.47912,7.6729-.28416,4.50637-.30042,4.83106-.2355,3.873-.90938,14.59886-.276,4.51449-.0569.90116-.24352,3.873-1.153,18.52877-.0893,1.48593-.18673,3.02857-.04867.84446-1.25044,20.00638-.15422,2.45211-.0894,1.42091-.18673,3.09358-1.05558,16.92093-.24352,3.873-.15433,2.509-.276,4.5145-.80383,12.99121-.24352,3.873-.39785,6.44684-.28426,4.50637-.5602,9.05317-.24363,3.873-.64147,10.37675-.28416,4.50637-.17861,5.13139-.13806,3.873Z" transform="translate(-157.6152 -47.45906)" fill="#ccc"/><path d="M764.43193,183.69686a5.6903,5.6903,0,0,1,5.68366-5.68366h51.1529a5.68366,5.68366,0,0,1,0,11.36732h-51.1529A5.6903,5.6903,0,0,1,764.43193,183.69686Z" transform="translate(-157.6152 -47.45906)" fill="#2f2e41"/><path d="M325.96658,118.33482a5.69029,5.69029,0,0,1,5.68365-5.68366H868.34977a5.68366,5.68366,0,0,1,0,11.36731H331.65023A5.69029,5.69029,0,0,1,325.96658,118.33482Z" transform="translate(-157.6152 -47.45906)" fill="#2f2e41"/><path d="M782.29485,240.53342a5.6903,5.6903,0,0,1,5.68366-5.68365h51.1529a5.68366,5.68366,0,1,1,0,11.36731h-51.1529A5.6903,5.6903,0,0,1,782.29485,240.53342Z" transform="translate(-157.6152 -47.45906)" fill="#2f2e41"/><rect x="736.03592" y="344.8377" width="163.96953" height="1.62408" transform="translate(302.64176 1110.98629) rotate(-89.14881)" fill="#b3b3b3"/><rect x="719.7969" y="533.21031" width="163.96953" height="1.62408" transform="translate(98.29217 1280.3233) rotate(-89.14881)" fill="#b3b3b3"/><rect x="775.002" y="634.70435" width="89.28519" height="1.62372" transform="translate(4.38842 1390.05868) rotate(-88.43668)" fill="#b3b3b3"/><path d="M481.11629,387.85315c7.4374-2.93858,14.888-8.258,16.11439-16.76241a9.26272,9.26272,0,0,0-.66217-5.61767,20.46862,20.46862,0,0,0-2.61208-3.40748,3.99286,3.99286,0,0,1-.90493-3.27264,4.74671,4.74671,0,0,1,2.03021-3.25937c.10037-.06037-.22351-.24028-.21558-.07277.01449.30593.14177.6359.17137.95158a9.54438,9.54438,0,0,1-.15941,2.86036,10.5793,10.5793,0,0,1-2.76263,5.23142c-2.23886,2.31317,1.2926,5.85292,3.53553,3.53554a15.35828,15.35828,0,0,0,4.28592-12.54825c-.30549-2.34715-1.59614-4.60379-4.14476-4.92739-2.57863-.32741-4.77188,1.46574-6.12848,3.48483a9.94421,9.94421,0,0,0-1.62684,6.298,9.46353,9.46353,0,0,0,2.38407,5.25426c.36743.44652,1.06994,1.211,1.25026,1.4542a3.60094,3.60094,0,0,1,.7001,1.33213c.34013,2.04072-.55312,4.34-1.53556,6.07573-2.37434,4.19481-6.67019,6.83863-11.04861,8.56857a2.57606,2.57606,0,0,0-1.7461,3.0753,2.5177,2.5177,0,0,0,3.0753,1.7461Z" transform="translate(-157.6152 -47.45906)" fill="#6c63ff"/><rect x="734.21364" y="441.12726" width="16.13837" height="12.9107" transform="translate(1326.95045 847.70616) rotate(-180)" fill="#fff"/><rect x="734.21364" y="473.12726" width="16.13837" height="12.9107" transform="translate(1326.95045 911.70616) rotate(-180)" fill="#fff"/><rect x="734.21364" y="505.12726" width="16.13837" height="12.9107" transform="translate(1326.95045 975.70616) rotate(-180)" fill="#fff"/><rect x="734.21364" y="537.12726" width="16.13837" height="12.9107" transform="translate(1326.95045 1039.70616) rotate(-180)" fill="#fff"/><rect x="734.21364" y="569.12726" width="16.13837" height="12.9107" transform="translate(1326.95045 1103.70616) rotate(-180)" fill="#fff"/><rect x="734.21364" y="601.12726" width="16.13837" height="12.9107" transform="translate(1326.95045 1167.70616) rotate(-180)" fill="#fff"/><rect x="734.21364" y="633.12726" width="16.13837" height="12.9107" transform="translate(1326.95045 1231.70616) rotate(-180)" fill="#fff"/><rect x="734.21364" y="665.12726" width="16.13837" height="12.9107" transform="translate(1326.95045 1295.70616) rotate(-180)" fill="#fff"/><rect x="734.21364" y="697.12726" width="16.13837" height="12.9107" transform="translate(1326.95045 1359.70616) rotate(-180)" fill="#fff"/></svg>
